<?xml version="1.0" encoding="UTF-8" standalone="no"?>
<svg
   xmlns:vectornator="http://vectornator.io"
   xmlns:dc="http://purl.org/dc/elements/1.1/"
   xmlns:cc="http://creativecommons.org/ns#"
   xmlns:rdf="http://www.w3.org/1999/02/22-rdf-syntax-ns#"
   xmlns:svg="http://www.w3.org/2000/svg"
   xmlns="http://www.w3.org/2000/svg"
   width="37.260582mm"
   height="28.199835mm"
   viewBox="0 0 37.260582 28.199835"
   version="1.1"
   id="svg8">
  <defs
     id="defs2" />
  <metadata
     id="metadata5">
    <rdf:RDF>
      <cc:Work
         rdf:about="">
        <dc:format>image/svg+xml</dc:format>
        <dc:type
           rdf:resource="http://purl.org/dc/dcmitype/StillImage" />
        <dc:title></dc:title>
      </cc:Work>
    </rdf:RDF>
  </metadata>
  <g
     id="layer1"
     transform="translate(-101.56614,-100.80484)"
     style="display:inline">
    <g
       style="clip-rule:evenodd;fill:#782121;fill-rule:evenodd;stroke-linecap:round;stroke-linejoin:round"
       id="g135"
       transform="matrix(0.26458333,0,0,0.26458333,93.833035,87.576005)">
      <g
         id="CUERPO"
         vectornator:layerName="CUERPO"
         style="fill:#782121"
         transform="translate(6.1871844,21.970818)">
<path
   stroke="#000000"
   stroke-width="3.08"
   d="m 128.016,57.856857 c 4.12129,2.203043 15.473,6.617243 18.793,10.674243 3.321,4.057 4.169,5.2875 6.933,9.8291 2.765,4.5416 4.125,8.3372 4.125,8.3372 0,0 1.811,5.5337 1.625,11.9089 -0.185,6.3757 -1.106,10.8697 -3.591,15.7707 -1.638,3.231 -2.992,4.461 -7.633,7.579 -4.64,3.119 -14.613,5.749 -14.613,5.749 0,0 -6.313,1.477 -11.235,1.967 -17.483,1.737 -39.2722,3.238 -58.8541,3.141 -4.1578,-0.021 -12.4938,-2.274 -19.4575,-4.764 -6.9637,-2.489 -11.8422,-8.016 -11.8422,-8.016 0,0 -4.046,-3.903 -6.2727,-9.101 -2.2267,-5.198 -2.4225,-12.0373 -2.4225,-12.0373 0,0 -0.0567,-5.4369 1.7275,-10.0782 1.7841,-4.6413 6.0128,-10.3991 6.0128,-10.3991 0,0 2.0827,-2.7949 4.9907,-5.5968 2.9079,-2.8019 3.4601,-3.2855 6.6412,-5.6109 3.181,-2.3254 6.7496,-4.0282 6.7496,-4.0282 0,0 8.4968,-2.810386 11.3214,-3.807686 0.580024,-0.2048 15.079652,10.422619 6.923105,16.635035 -3.384321,2.57766 -5.826155,2.574443 -10.032236,8.407891 -3.746003,5.195362 -10.811684,17.61451 -7.792321,23.73876 0.901964,1.82948 5.693996,3.36763 10.971404,4.19556 6.96854,1.09323 15.153408,1.56378 18.387348,1.65265 3.038883,0.37914 9.000936,-0.15251 16.070772,-1.26353 C 114.95137,109.69002 142.70971,102.27313 141.25453,97.34666 139.8289,94.806966 128.65386,81.072712 126.26337,79.290852 124.22146,77.76882 113.68993,72.508053 113.68993,72.508053 115.37402,64.72057 126.54931,56.7375 128.016,57.856857 Z"
   fill="none"
   stroke-linecap="butt"
   opacity="1"
   stroke-linejoin="round"
   id="path40"
   style="fill:#c83737" />

<path
   stroke="#000000"
   stroke-width="2.7"
   d="m 72.6185,73.5106 c 0,0 -6.3325,3.0621 -10.8166,7.2843 -4.4841,4.2222 -8.7457,12.427 -8.7457,12.427 0,0 -1.5714,3.1578 -2.556,7.1431 -0.9846,3.986 -1.356,7.866 -1.1675,9.723 0.1972,1.943 0.5193,4.362 1.4139,6.458 1.5861,3.717 1.9241,4.08 4.0262,6.665 2.1022,2.584 4.3825,3.674 4.3825,3.674 0,0 4.9208,2.63 7.7908,3.628 2.87,0.999 6.4757,2.189 6.4757,2.189"
   fill="none"
   stroke-linecap="butt"
   opacity="0.995595"
   stroke-linejoin="bevel"
   id="path42"
   style="fill:none" />

<path
   stroke="#000000"
   stroke-width="3.08"
   d="m 112.611,72.5925 c 0,0 8.624,2.5833 13.885,7.5154 4.076,3.8215 7.515,5.8595 10.954,11.4643 3.44,5.6048 3.44,6.3372 3.949,11.2098 0.51,4.872 -0.509,8.662 -2.293,11.082 -1.783,2.42 -2.579,4.522 -8.025,8.662 -5.445,4.14 -13.757,7.897 -13.757,7.897"
   fill="none"
   stroke-linecap="butt"
   opacity="1"
   stroke-linejoin="bevel"
   id="path44"
   style="fill:none" />


<path
   stroke="#000000"
   stroke-width="2.5"
   d="m 59.994,68.9201 c 2.7339,2.9166 3.2389,6.8885 3.2389,6.8885 0,0 0.742,5.5501 -2.4057,8.0688 -3.1477,2.5186 -5.2235,3.0457 -9.714,2.7754 -4.4905,-0.2702 -8.2481,-3.8565 -8.2481,-3.8565 -4.478,-3.5627 -4.8199,-7.7421 -3.4729,-11.8627 0.3196,-0.9774 1.0731,-2.8755 3.1858,-4.6351 2.1126,-1.7595 6.0775,-3.3351 9.7194,-2.1564 2.328,0.7535 4.9627,1.8614 7.6966,4.778 z"
   fill="none"
   stroke-linecap="round"
   opacity="1"
   stroke-linejoin="round"
   id="path48"
   style="fill:#ffcc00" />

<path
   stroke="#000000"
   stroke-width="2.5"
   d="m 41.8152,74.7402 9.6234,8.654"
   fill="none"
   stroke-linecap="round"
   opacity="1"
   stroke-linejoin="round"
   id="path50"
   style="fill:#782121" />

<path
   stroke="#000000"
   stroke-width="2.5"
   d="m 42.7798,74.0938 c 0,0 1.8171,-2.2093 3.3414,-1.8149 1.5243,0.3944 2.354,2.3604 2.7559,3.3926 0.8444,2.1689 1.0091,5.1222 1.0091,5.1222"
   fill="none"
   stroke-linecap="round"
   opacity="0.993392"
   stroke-linejoin="round"
   id="path52"
   style="fill:#ffcc00" />

<path
   stroke="#000000"
   stroke-width="1.72"
   d="m 50.2532,79.8761 c 0,0 1.8477,-0.0608 3.1323,0.1511 1.2846,0.212 2.0061,0.6968 2.0061,0.6968 0,0 0.4743,-2.0437 0.431,-2.9633 -0.0432,-0.9196 -0.0337,-1.4506 -0.7502,-2.7271 -0.7165,-1.2765 -1.0804,-1.8927 -1.9025,-1.9689 -0.8221,-0.0761 -1.6477,0.1275 -1.5837,1.3234 0.064,1.1959 0.3675,2.2022 1.8398,3.4602 1.4723,1.258 2.6896,1.5926 4.0495,1.5717 1.36,-0.0208 1.3903,-1.655 1.3903,-1.655"
   fill="none"
   stroke-linecap="round"
   opacity="0.993392"
   stroke-linejoin="round"
   id="path54"
   style="fill:#ffcc00" />

<path
   stroke="#000000"
   stroke-width="2.5"
   d="m 49.4107,88.6073 c 2.2215,3.5528 2.0403,7.8077 2.0403,7.8077 0,0 -0.217,5.952 -3.7874,8.022 -3.5704,2.069 -5.7296,2.245 -10.1576,1.148 -4.4279,-1.097 -7.5541,-5.537 -7.5541,-5.537 -3.8481,-4.5465 -3.4686,-8.9894 -1.4164,-13.0645 0.4868,-0.9667 1.5648,-2.8196 3.973,-4.2811 2.4083,-1.4614 6.6306,-2.3942 10.0563,-0.4986 2.1899,1.2118 4.6243,2.8507 6.8459,6.4035 z"
   fill="none"
   stroke-linecap="round"
   opacity="1"
   stroke-linejoin="round"
   id="path56"
   style="fill:#5599ff" />

<path
   stroke="#000000"
   stroke-width="1.4"
   d="m 33.2367,96.3119 7.9006,5.9531"
   fill="none"
   stroke-linecap="round"
   opacity="1"
   stroke-linejoin="round"
   id="path58"
   style="fill:#782121" />

<path
   stroke="#000000"
   stroke-width="1.4"
   d="m 32.4535,97.2694 c 0,0 1.4565,-2.0914 2.7377,-2.4932 1.2812,-0.4018 2.3348,0.512 2.3348,0.512 0,0 2.6262,1.9343 3.1197,2.9311 0.2633,0.5319 0.2018,1.9917 0.3005,3.4697"
   fill="none"
   stroke-linecap="round"
   opacity="1"
   stroke-linejoin="round"
   id="path60"
   style="fill:none" />

<path
   stroke="#000000"
   stroke-width="1.4"
   d="m 35.8513,91.274 6.7921,6.2802 0.4152,-4.3243"
   fill="none"
   stroke-linecap="round"
   opacity="1"
   stroke-linejoin="round"
   id="path62"
   style="fill:none" />

<path
   stroke="#000000"
   stroke-width="1.4"
   d="m 37.335,88.2727 -1.2726,3.1592"
   fill="none"
   stroke-linecap="round"
   opacity="1"
   stroke-linejoin="round"
   id="path64"
   style="fill:#782121" />

<path
   stroke="#000000"
   stroke-width="1.4"
   d="m 39.4297,93.9407 0.6965,-2.4172"
   fill="none"
   stroke-linecap="round"
   opacity="1"
   stroke-linejoin="round"
   id="path66"
   style="fill:#782121" />

<path
   stroke="#000000"
   stroke-width="1.4"
   d="m 45.738,94.4699 -7.8504,-7.5378 1.2631,-3.0844"
   fill="none"
   stroke-linecap="round"
   opacity="1"
   stroke-linejoin="round"
   id="path68"
   style="fill:none" />

<path
   stroke="#000000"
   stroke-width="1.4"
   d="m 41.8702,90.2516 0.2032,-2.9105"
   fill="none"
   stroke-linecap="round"
   opacity="1"
   stroke-linejoin="round"
   id="path70"
   style="fill:#782121" />

<path
   stroke="#000000"
   stroke-width="2.5"
   d="m 147.91,68.3802 c 1.304,3.3685 1.581,4.9863 0.264,8.2204 -1.445,3.5484 -4.188,5.2972 -7.016,6.6671 -1.032,0.5001 -2.555,0.7047 -3.532,0.7299 -0.632,0.0163 -1.444,-0.0086 -2.905,-0.3072 -4.225,-0.8636 -7.743,-5.5108 -7.743,-5.5108 -1.586,-1.5451 -1.133,-5.3121 -1.133,-5.3121 0,0 0.586,-3.3496 1.699,-5.1722 0.465,-0.7608 2.743,-3.8705 5.042,-5.0208 2.298,-1.1503 6.299,-2.2488 9.568,-0.7568 2.09,0.9538 4.452,3.094 5.756,6.4625 z"
   fill="none"
   stroke-linecap="round"
   opacity="1"
   stroke-linejoin="round"
   id="path72"
   style="fill:#b380ff" />

<path
   stroke="#000000"
   stroke-width="2.5"
   d="m 140.46,65.7364 -1.373,14.5781"
   fill="none"
   stroke-linecap="round"
   opacity="1"
   stroke-linejoin="round"
   id="path74"
   style="fill:#782121" />

<path
   stroke="#000000"
   stroke-width="2.5"
   d="m 139.414,74.608 -6.49,1.4825"
   fill="none"
   stroke-linecap="round"
   opacity="1"
   stroke-linejoin="round"
   id="path76"
   style="fill:#782121" />

<path
   stroke="#000000"
   stroke-width="2.5"
   d="m 160.698,90.1752 c 1.112,2.8144 1.348,4.1661 0.225,6.8683 -1.232,2.9645 -3.57,4.4255 -5.98,5.5705 -0.88,0.418 -2.178,0.589 -3.012,0.61 -0.538,0.014 -1.231,-0.007 -2.476,-0.257 -3.602,-0.721 -6.601,-4.6042 -6.601,-4.6042 -1.352,-1.2909 -0.966,-4.4384 -0.966,-4.4384 0,0 0.5,-2.7987 1.449,-4.3215 0.396,-0.6357 2.338,-3.2339 4.298,-4.195 1.959,-0.9612 5.37,-1.879 8.157,-0.6323 1.782,0.7969 3.795,2.5851 4.906,5.3996 z"
   fill="none"
   stroke-linecap="round"
   opacity="1"
   stroke-linejoin="round"
   id="path78"
   style="fill:#00aa44" />

<path
   stroke="#000000"
   stroke-width="2.5"
   d="m 152.497,88.022 -6.732,3.3067 4.084,8.5679 6.876,-2.9899 z"
   fill="none"
   stroke-linecap="round"
   opacity="0.997797"
   stroke-linejoin="round"
   id="path80"
   style="fill:#3e4837" />

<path
   stroke="#000000"
   stroke-width="2.5"
   d="m 150.007,89.2354 0.935,1.9299 1.922,-1.0078"
   fill="none"
   stroke-linecap="round"
   opacity="0.997797"
   stroke-linejoin="round"
   id="path82"
   style="fill:#782121" />

<path
   stroke="#000000"
   stroke-width="2.5"
   d="m 154.29,97.7564 -0.928,-1.933 1.985,-0.8771"
   fill="none"
   stroke-linecap="round"
   opacity="0.997797"
   stroke-linejoin="round"
   id="path84"
   style="fill:#782121" />

<path
   stroke="#000000"
   stroke-width="1.87"
   d="m 154.725,92.0722 1.971,-0.8841"
   fill="none"
   stroke-linecap="round"
   opacity="0.991189"
   stroke-linejoin="round"
   id="path86"
   style="fill:#782121" />

<path
   stroke="#000000"
   stroke-width="1.87"
   d="m 157.572,91.9643 -1.104,-0.7596 c 0,0 0.103,-1.0007 0.092,-1.2003 -0.011,-0.1996 1.455,0.5739 1.455,0.5739 z"
   fill="none"
   stroke-linecap="round"
   opacity="0.991189"
   stroke-linejoin="round"
   id="path88"
   style="fill:#782121" />

</g>
    </g>
  </g>
  <g
     id="layer4"
     style="display:inline">
    <path
       stroke="#000000"
       stroke-width="0.814917"
       d="M 11.68912,11.176003 C 11.026789,10.778228 11.03851,10.747166 10.679761,10.279674 10.321013,9.8121817 10.196182,9.3162732 10.20883,9.0787567 c 0.01934,-0.3636962 0.08398,-0.869262 0.262519,-1.1940381 0.183542,-0.3339041 0.313584,-0.6108964 0.541999,-0.9240837 0.377031,-0.5169959 0.987584,-1.1280775 0.987584,-1.1280775 0,0 0.591264,-0.6332008 1.387978,-1.1095302 0.796686,-0.4763558 1.782206,-0.8104452 1.782206,-0.8104452 0,0 0.760677,-0.2247107 1.056931,-0.2873111 0.551948,-0.1166018 1.155515,-0.1562629 1.155515,-0.1562629 l 1.213035,-0.049504 c 0,0 0.704374,-0.03011 1.325563,0.013891 0.621189,0.044 0.823516,0.021881 1.253993,0.097234 0.3683,0.064452 0.523875,0.024527 1.242219,0.2057929 0.718343,0.1812661 1.019175,0.2800086 1.63142,0.5192977 0.612246,0.2392627 1.052248,0.4979988 1.428221,0.7320227 0.419629,0.2612496 0.980546,0.5350405 1.4097,1.0646039 0.429419,0.52959 0.43815,0.5996517 0.523346,1.2031398 0.0852,0.6034882 -0.182562,1.2108392 -0.182562,1.2108392 0,0 -0.304271,0.8275902 -0.801952,1.4099381 -0.497946,0.5823477 -0.799836,0.8548687 -1.683809,1.3662287 -0.884237,0.511387 -0.919956,0.592614 -2.039144,0.937339 -1.119187,0.3447 -1.518179,0.322448 -2.437659,0.441537 -0.919374,0.119089 -0.606055,0.09173 -1.439122,0.08139 -0.833067,-0.01035 -0.90371,-0.01162 -1.893146,-0.122767 -0.989463,-0.111151 -1.113949,-0.0867 -1.967072,-0.260244 -0.853122,-0.173514 -0.92112,-0.123666 -1.717701,-0.417089 -0.720725,-0.265457 -0.89744,-0.328851 -1.559772,-0.726652 z"
       fill="none"
       stroke-linecap="butt"
       opacity="1"
       stroke-linejoin="bevel"
       id="path14-5"
       style="clip-rule:evenodd;display:inline;fill:#c83737;fill-rule:evenodd;stroke-linecap:round;stroke-linejoin:round" />
  </g>
  <g
     id="layer3"
     style="display:inline">
    <g
       id="Cara"
       vectornator:layerName="Cara"
       style="clip-rule:evenodd;display:inline;fill-rule:evenodd;stroke-linecap:round;stroke-linejoin:round"
       transform="matrix(0.26458333,0,0,0.26458333,-5.82881,-7.348905)">
<path
   stroke="#000000"
   stroke-width="2.1"
   d="M 66.491433,51.591187 65.9712,59.8985 c 0,0 8.4395,7.7338 8.6908,7.4147 0.7362,-0.9347 4.0005,-8.139 4.0005,-8.139 0,0 1.2157,-2.6469 1.7934,-5.0696 0.5776,-2.4227 0.5173,-4.6213 0.5173,-4.6213 l 0.2759,-5.449 0.100467,-2.536944"
   fill="none"
   stroke-linecap="butt"
   opacity="1"
   stroke-linejoin="bevel"
   id="path17"
   style="fill:#ffccaa" />

<path
   stroke="#000000"
   stroke-width="2.12"
   d="m 99.4344,40.972 c 0,0 -0.6122,6.0469 -0.2148,10.268 0.3974,4.221 0.464,4.2508 1.8044,6.6162 0.73,1.2888 2.535,2.6636 2.535,2.6636 0,0 3.255,2.7397 3.523,2.4919 1.761,-1.6326 8.291,-8.1629 8.291,-8.1629 l 0.688,-9.7954"
   fill="none"
   stroke-linecap="butt"
   opacity="1"
   stroke-linejoin="bevel"
   id="path19"
   style="fill:#e9c6af" />

<path
   stroke="#000000"
   stroke-width="2.1"
   d="m 73.4257,45.3251 c 0,0 -1.943,2.1187 -2.8582,4.0054 -0.4191,0.8638 -0.8318,2.5462 -0.8588,3.7823 -0.0271,1.2362 0.0072,2.7147 0.6661,4.7433 0.6588,2.0287 2.5506,3.6752 2.5506,3.6752 0,0 0.6445,0.6097 1.6345,1.2179 0.99,0.6082 1.906,0.7208 1.906,0.7208 l 1.69085,-3.148758 2.08344,-6.281886 0.947018,-11.301082 z"
   fill="none"
   stroke-linecap="butt"
   opacity="1"
   stroke-linejoin="bevel"
   id="path21"
   style="fill:#241c1c" />

<path
   stroke="#000000"
   stroke-width="2.1"
   d="m 112.159,43.776 c 0,0 0.555,2.2147 0.404,4.3913 -0.151,2.1766 -0.973,4.3597 -0.973,4.3597 0,0 -0.767,2.1486 -1.935,3.8869 -1.169,1.7383 -1.307,2.0682 -2.774,3.0218 -1.467,0.9537 -3.589,0.8595 -3.589,0.8595 l -2.72249,-2.972848 -1.357393,-4.73509 -0.284105,-5.839945 0.378807,-5.019195 0.127581,-0.756122 6.18587,0.629853 z"
   fill="none"
   stroke-linecap="butt"
   opacity="0.995595"
   stroke-linejoin="bevel"
   id="path23"
   style="fill:#241c1c" />

<path
   stroke="#000000"
   stroke-width="2.1"
   d="m 80.1513,64.2147 c -0.9007,-1.0332 -1.0348,-1.756 -1.1061,-2.4108 -0.1405,-1.2896 -0.0481,-2.0501 0.1894,-2.6964 0.4433,-1.2067 0.8305,-1.7614 1.8543,-2.3842 0.7197,-0.4377 1.4731,-0.4509 2.2495,-0.1486 0.4115,0.1602 1.1938,0.4625 1.9891,1.2613 0.7953,0.7987 1.192,1.9338 1.192,1.9338 0,0 0.3577,0.6026 1.0067,0.9272 0.649,0.3245 0.8333,0.3768 1.5397,0.45 0.7063,0.0732 1.5042,-0.2675 1.7949,-0.4017 0.2907,-0.1341 0.9687,-0.5464 0.9687,-0.5464 0,0 0.5342,-0.2755 1.0478,-0.906 0.5137,-0.6304 0.8199,-1.2362 0.9206,-1.6435 0.1697,-0.6858 0.1528,-1.1463 0.5237,-1.9874 0.3708,-0.8411 0.5556,-0.9178 1.2587,-1.4114 0.7032,-0.4937 1.1794,-0.5424 2.0281,-0.3552 0.6238,0.1376 1.4413,0.5762 1.4413,0.5762 0,0 0.6291,0.8279 1.0333,1.8809 0.404,1.053 0.602,1.2252 0.583,2.3312 -0.02,1.1059 -0.35,2.1516 -0.8339,3.357 -0.4835,1.2053 -1.0538,1.6124 -1.8256,2.2897 -0.7718,0.6774 -2.4647,1.1596 -2.4647,1.1596 l -1.837,0.4356 -2.152,0.3079 L 89.619,66.472 87.3143,66.4455 85.0361,66.26 c 0,0 -1.7077,-0.095 -2.4202,-0.4263 -0.5192,-0.2415 -1.5639,-0.5859 -2.4646,-1.619 z"
   fill="none"
   stroke-linecap="butt"
   opacity="1"
   stroke-linejoin="bevel"
   id="path25"
   style="fill:#ffccaa" />

<path
   stroke="#000000"
   stroke-width="2.02426"
   d="m 97.927758,41.04165 c -0.148598,-0.37321 -1.330887,-0.0038 -0.750053,-0.45608 l -0.317393,-1.325282 c 0,0 -0.294358,-1.948253 -0.764146,-3.414687 -0.300382,-0.937632 -1.078031,-2.90723 -1.54811,-3.781776 -0.470079,-0.874445 -0.798617,-1.683248 -1.288692,-2.189827 -0.470543,-0.486406 -1.164646,-1.023188 -2.138316,-1.084928 -0.375749,-0.02389 -1.287118,0.253842 -1.736554,0.594004 -0.436661,0.330527 -0.820555,0.251434 -2.308833,3.174986 -1.488276,2.923452 -1.934809,7.904322 -1.934809,7.904322 L 87.9414,40.6669 c 0,0 0.610483,-2.024608 1.263894,-2.821552 0.425778,-0.519308 0.970146,-1.183951 1.641498,-1.167989 0.749174,0.01781 1.40203,0.734884 1.767766,1.38896 0.419735,0.750648 0.295742,2.563081 0.295742,2.563081 z"
   fill="none"
   stroke-linecap="butt"
   opacity="1"
   stroke-linejoin="bevel"
   id="path27"
   style="fill:#d35f5f" />

<path
   stroke="#000000"
   stroke-width="1.21"
   d="m 89.4227,34.1979 c 0.1734,0.7219 1.9641,0.9281 2.4188,0.2437 0.4547,-0.6844 0.0469,-2.7376 -0.5813,-2.7751 -0.6281,-0.0375 -2.011,1.8095 -1.8375,2.5314 z"
   fill="none"
   stroke-linecap="butt"
   opacity="1"
   stroke-linejoin="bevel"
   id="path29"
   style="fill:#ffffff" />

<path
   stroke="#000000"
   stroke-width="1.28"
   d="m 87.9414,40.6669 c 0,0 0.2906,-1.5704 0.8437,-2.4751 0.5532,-0.9048 1.179,-1.1359 1.5938,-1.2188 0.4688,-0.0938 0.6188,-0.1078 1.1438,0.1687 0.5251,0.2766 0.8813,0.7688 1.0126,1.0876 0.2267,0.5506 0.375,0.9375 0.3937,1.275 0.0359,0.6456 -0.0187,1.1251 -0.0187,1.1251"
   fill="none"
   stroke-linecap="butt"
   opacity="1"
   stroke-linejoin="bevel"
   id="path31"
   style="fill:none" />

<path
   stroke="#000000"
   stroke-width="2.1"
   d="M 86.6767,60.1555 82.872,65.9101"
   fill="none"
   stroke-linecap="butt"
   opacity="1"
   stroke-linejoin="bevel"
   id="path33" />

<path
   stroke="#000000"
   stroke-width="2.1"
   d="m 90.3862,60.9164 1.8072,5.1126"
   fill="none"
   stroke-linecap="butt"
   opacity="0.986784"
   stroke-linejoin="bevel"
   id="path35" />

<path
   stroke="#000000"
   stroke-width="2.1"
   d="m 93.644,58.4196 5.493,4.8272"
   fill="none"
   stroke-linecap="butt"
   opacity="1"
   stroke-linejoin="bevel"
   id="path37" />

</g>
  </g>
  <g
     id="layer2"
     transform="translate(-101.56614,-100.80484)"
     style="display:inline">
    <g
       id="CONTORNO cabeza"
       vectornator:layerName="CONTORNO cabeza"
       style="clip-rule:evenodd;display:inline;fill:#c83737;fill-rule:evenodd;stroke-linecap:round;stroke-linejoin:round"
       transform="matrix(0.26458333,0,0,0.26458333,95.73733,93.455938)">
<path
   stroke="#000000"
   stroke-width="3.08"
   d="m 66.2095,70.0154 c -2.5033,-1.5034 -2.459,-1.6208 -3.8149,-3.3877 -1.3559,-1.7669 -1.8277,-3.6412 -1.7799,-4.5389 0.0731,-1.3746 0.3174,-3.2854 0.9922,-4.5129 0.6937,-1.262 1.1852,-2.3089 2.0485,-3.4926 1.425,-1.954 3.7326,-4.2636 3.7326,-4.2636 0,0 2.2347,-2.3932 5.2459,-4.1935 3.0111,-1.8004 6.7359,-3.0631 6.7359,-3.0631 0,0 2.875,-0.8493 3.9947,-1.0859 2.0861,-0.4407 4.3673,-0.5906 4.3673,-0.5906 l 4.5847,-0.1871 c 0,0 2.6622,-0.1138 5.01,0.0525 2.3478,0.1663 3.1125,0.0827 4.7395,0.3675 1.392,0.2436 1.98,0.0927 4.695,0.7778 2.715,0.6851 3.852,1.0583 6.166,1.9627 2.314,0.9043 3.977,1.8822 5.398,2.7667 1.586,0.9874 3.706,2.0222 5.328,4.0237 1.623,2.0016 1.656,2.2664 1.978,4.5473 0.322,2.2809 -0.69,4.5764 -0.69,4.5764 0,0 -1.15,3.1279 -3.031,5.3289 -1.882,2.201 -3.023,3.231 -6.364,5.1637 -3.342,1.9328 -3.477,2.2398 -7.707,3.5427 -4.23,1.3028 -5.738,1.2187 -9.2132,1.6688 -3.4748,0.4501 -2.2906,0.3467 -5.4392,0.3076 -3.1486,-0.0391 -3.4156,-0.0439 -7.1552,-0.464 -3.7397,-0.4201 -4.2102,-0.3277 -7.4346,-0.9836 -3.2244,-0.6558 -3.4814,-0.4674 -6.4921,-1.5764 -2.724,-1.0033 -3.3919,-1.2429 -5.8952,-2.7464 z"
   fill="none"
   stroke-linecap="butt"
   opacity="1"
   stroke-linejoin="bevel"
   id="path14"
   style="fill:none" />

</g>
  </g>
</svg>
