<?xml version="1.0" encoding="UTF-8"?><svg xmlns="http://www.w3.org/2000/svg" xmlns:xlink="http://www.w3.org/1999/xlink" version="1.1" id="Layer_1" x="0px" y="0px" viewBox="0 0 48 48" xml:space="preserve"><g fill="#212121"><path d="M44.265 20.931L27.505 3.502c-2.08-2.003-5.498-2.003-7.423 0L3.908 20.327c-6.131 6.227 4.157 5.727 7.813 8.086 1.686 1.116-4.968 2.559-3.52 4.031 1.411 1.481 8.076 2.815 9.487 4.25 1.411 1.472-2.826 3.039-1.406 4.511 1.375 1.472 4.423.07 5.019 3.417.431 2.478 5.779 1.233 8.29-.879 1.567-1.353-2.74-1.352-1.329-2.833 1.265-1.298 2.474-1.875 3.574-2.231 1.97-.649 4.22-.504 5.054-2.662.706-1.792-5.266-3.194-3.654-4.346 3.848-2.751 17.554-4.12 11.029-10.74zM25.717 32.904c-2.126.732-11.867-3.948-9.31-3.948.44.001 14.854 2.065 9.31 3.948z"/><path d="M38.667 37.98c-1.847 1.904.321 3.899 2.128 2.584.483-.363-.039-2.131-2.128-2.584z"/><path d="M40.021 36.134c0 .899 6.313 1.412 5.965-.214-.503-2.739-5.267-2.525-5.965.214z"/><path d="M9.552 41.421c1.477 1.555 3.711-.34 4.43-2.527-1.437-2.284-6.745.146-4.43 2.527z"/></g><path d="M26.77 5.59l-4.48 7.59-7.94 13.46c-1.55-.59-3.21-.95-4.76-1.23-.6-.19-1.21-.36-1.82-.52-1.14-.31-3.21-.88-3.74-1.37.07-.21.34-.78 1.35-1.81l7.68-7.98 8.5-8.84c.55-.57 1.33-.89 2.21-.89s1.74.33 2.36.92l.64.67z" fill="#424242"/><path d="M33.07 12.13c-.03.1-.08.18-.13.24l-3.05-2.51-.6 3.69-2.51-1.37-4.09 2.62-.4-1.62-.95-3.89-2.18 4.79-5.45-.04c-.34 0-.55-.12-.65-.31l8.5-8.84c.55-.57 1.33-.89 2.21-.89s1.74.33 2.36.92l.64.67 6.3 6.54z" fill="#FAFAFA"/><metadata><rdf:RDF xmlns:rdf="http://www.w3.org/1999/02/22-rdf-syntax-ns#" xmlns:rdfs="http://www.w3.org/2000/01/rdf-schema#" xmlns:dc="http://purl.org/dc/elements/1.1/"><rdf:Description about="https://iconscout.com/legal#licenses" dc:title="inkscape" dc:description="inkscape" dc:publisher="Iconscout" dc:date="2017-12-15" dc:format="image/svg+xml" dc:language="en"><dc:creator><rdf:Bag><rdf:li>Icons8</rdf:li></rdf:Bag></dc:creator></rdf:Description></rdf:RDF></metadata></svg>