<svg xmlns="http://www.w3.org/2000/svg"  viewBox="0 0 64 64" width="64px" height="64px"><path fill="#7e8188" d="M57,13v38c0,3.31-2.69,6-6,6H13c-3.31,0-6-2.69-6-6V13c0-3.31,2.69-6,6-6h38C54.31,7,57,9.69,57,13z"/><path fill="#8a8e99" d="M53,7H11c-2.209,0-4,1.791-4,4l0,0c0,1.657,1.343,3,3,3h44c1.657,0,3-1.343,3-3l0,0	C57,8.791,55.209,7,53,7z"/><path fill="#8d6c9f" d="M51,58H13c-3.86,0-7-3.141-7-7V13c0-3.859,3.14-7,7-7h38c3.86,0,7,3.141,7,7v38	C58,54.859,54.86,58,51,58z M13,8c-2.757,0-5,2.243-5,5v38c0,2.757,2.243,5,5,5h38c2.757,0,5-2.243,5-5V13c0-2.757-2.243-5-5-5H13z"/><path fill="#8d6c9f" d="M16.382,30.831c-0.28,0-0.56-0.117-0.757-0.346l-1.308-1.514c-0.361-0.418-0.315-1.05,0.103-1.411 c0.417-0.361,1.05-0.315,1.411,0.103l1.308,1.514c0.361,0.418,0.315,1.05-0.103,1.411C16.846,30.751,16.613,30.831,16.382,30.831z"/><path fill="#8d6c9f" d="M20.431,27.919c-0.341,0-0.674-0.175-0.861-0.489l-1.021-1.72c-0.282-0.475-0.125-1.089,0.349-1.37 c0.474-0.284,1.088-0.126,1.371,0.349l1.021,1.72c0.282,0.475,0.125,1.089-0.349,1.37C20.781,27.874,20.605,27.919,20.431,27.919z"/><path fill="#8d6c9f" d="M24.928,25.711c-0.397,0-0.772-0.237-0.929-0.629l-0.743-1.857c-0.205-0.513,0.044-1.095,0.558-1.3 c0.512-0.205,1.094,0.044,1.3,0.558l0.743,1.857c0.205,0.513-0.044,1.095-0.558,1.3C25.177,25.688,25.051,25.711,24.928,25.711z"/><path fill="#8d6c9f" d="M29.717,24.167c-0.447,0-0.854-0.302-0.969-0.756l-0.488-1.939 c-0.135-0.535,0.19-1.079,0.726-1.214c0.537-0.131,1.079,0.189,1.214,0.726l0.488,1.939c0.135,0.535-0.19,1.079-0.726,1.214 C29.88,24.157,29.798,24.167,29.717,24.167z"/><path fill="#8d6c9f" d="M34.758,22.664c-0.413,0-0.799-0.258-0.944-0.669l-0.662-1.887 c-0.183-0.521,0.092-1.092,0.613-1.274c0.521-0.187,1.092,0.092,1.275,0.612l0.662,1.887c0.183,0.521-0.092,1.092-0.613,1.274 C34.98,22.646,34.868,22.664,34.758,22.664z"/><path fill="#8d6c9f" d="M39.647,20.586c-0.36,0-0.708-0.194-0.887-0.536l-0.928-1.771c-0.256-0.489-0.067-1.094,0.421-1.35 c0.492-0.259,1.094-0.068,1.35,0.422l0.928,1.771c0.256,0.489,0.067,1.094-0.421,1.35C39.962,20.55,39.803,20.586,39.647,20.586z"/><path fill="#8d6c9f" d="M44.092,17.368c-0.241,0-0.484-0.087-0.676-0.264l-1.474-1.353 c-0.407-0.373-0.434-1.006-0.061-1.412c0.373-0.406,1.006-0.436,1.413-0.061l1.474,1.353c0.407,0.373,0.434,1.006,0.061,1.412 C44.632,17.259,44.363,17.368,44.092,17.368z"/><path fill="#ffeb9b" d="M49.76,25.47c-0.44,0.9-0.98,1.81-1.61,2.7c-0.01,0.01-0.02,0.02-0.02,0.02	c-2.71,3.82-7.19,7.37-14.31,9.56C33.55,37.84,33.28,37.92,33,38c-7,2-17,1.5-21,14c0-5,1-19.5,19-24c2.85-0.71,5.3-1.5,7.4-2.34	c0.95-0.38,1.83-0.77,2.65-1.16c8.41-4.09,9.84-9,9.94-12.11C51,12.26,51,12.13,51,12c0.07,0.15,0.13,0.32,0.2,0.49	c0.11,0.29,0.21,0.62,0.3,0.98c0.06,0.25,0.11,0.52,0.16,0.8c0.02,0.1,0.03,0.21,0.05,0.31C52.09,17.34,51.79,21.4,49.76,25.47z"/><path fill="#ed7899" d="M49.76,25.47c-0.44,0.9-0.98,1.81-1.61,2.7c-0.01,0.01-0.02,0.02-0.02,0.02	c-2.71,3.82-7.19,7.37-14.31,9.56C31.51,37.94,29.39,38,28,38c-4,0-6,0-8,1l0.5-1l6-4.5l10.5-3L48.5,25L49.76,25.47z"/><path fill="#97e0bb" d="M38,30c-8.5,2.5-14.5,6-19,9s-7,11-7,13c0-5,1-19.5,19-24c2.85-0.71,5.3-1.5,7.4-2.34	c0.95-0.38,1.83-0.77,2.65-1.16C42.75,26.03,43.38,28.42,38,30z"/><path fill="#85cbf8" d="M51.5,13.47V15L49,23.5l-7.5,6l-9.5,4l-8,2L22,35c2.5-2.5,6-4.5,12-6.5c1.67-0.56,3.14-1.61,4.4-2.84	c10.77-4.28,12.48-9.86,12.59-13.27C51,12.26,51,12.13,51,12c0.07,0.15,0.13,0.32,0.2,0.49C51.31,12.78,51.41,13.11,51.5,13.47z"/><path fill="#f7a1c8" d="M48.15,28.17c-0.01,0.01-0.02,0.02-0.02,0.02C46.45,30.12,42.177,32.338,39,33c-12,2.5-24,4.5-27,19	c2.049-9.902,3.79-16.07,21-22c14.35-4.95,17.87-4.99,17.99-17.61C51,12.26,51,12.13,51,12c0.07,0.15,0.13,0.32,0.2,0.49	c0.18,0.52,0.34,1.12,0.46,1.78c0.02,0.1,0.03,0.21,0.05,0.31C52.18,17.96,51.62,23.27,48.15,28.17z"/><path fill="#8d6c9f" d="M12,53c-0.051,0-0.103-0.004-0.155-0.012C11.359,52.912,11,52.493,11,52	c0-7.48,2.567-20.673,19.757-24.97C39.536,24.835,50,20.446,50,12c0-0.464,0.319-0.866,0.77-0.974	c0.457-0.102,0.917,0.111,1.125,0.526c1.05,2.102,1.76,7.609-0.807,13.445c-2.037,4.63-6.781,10.812-17.813,13.964	c-1.294,0.369-2.649,0.648-4.084,0.943c-6.458,1.328-13.135,2.702-16.238,12.399C12.818,52.724,12.429,53,12,53z M50.856,17.026	c-2.072,4.32-7.418,8.895-19.614,11.943c-12.063,3.017-16.328,10.767-17.679,17.34c4.001-6.054,10.115-7.313,15.224-8.363	c1.397-0.287,2.716-0.559,3.938-0.908c10.286-2.938,14.667-8.607,16.532-12.846C50.37,21.663,50.815,19.141,50.856,17.026z"/></svg>